# xmcd
#
# Track frame offsets:
#	150
#	3124
#	20720
#	38392
#	57443
#	76313
#	92766
#	117948
#	137236
#	157820
#	177916
#	195658
#	217970
#	233740
#
# Disc length: 3769 seconds
#
# Revision: 10
# Processed by: cddbd v1.5.2PL0 Copyright (c) Steve Scherf et al.
# Submitted via: Jack! The Knife 20 Magnifico
#
DISCID=a80eb70e
DTITLE=Gotthard - Bang!
DYEAR=2014
DGENRE=Hard Rock
TTITLE0=Let Me In Katie
TTITLE1=Bang!
TTITLE2=Get Up 'N' Move On
TTITLE3=Feel What I Feel
TTITLE4=C'est La Vie
TTITLE5=Jump The Gun
TTITLE6=Spread Your Wings
TTITLE7=I Won't Look Down
TTITLE8=My Belief
TTITLE9=Maybe
TTITLE10=Red On A Sleeve
TTITLE11=What You Get
TTITLE12=Mr. Ticket Man
TTITLE13=Thank You
EXTD=Leo Leoni and Charlie Bauerfeind
EXTT0=
EXTT1=
EXTT2=
EXTT3=
EXTT4=
EXTT5=
EXTT6=
EXTT7=
EXTT8=
EXTT9=
EXTT10=
EXTT11=
EXTT12=
EXTT13=
PLAYORDER=
